<svg width="28" height="28" viewBox="0 0 28 28" fill="none" xmlns="http://www.w3.org/2000/svg">
<path d="M4.66667 15.1666C5.311 15.1666 5.83333 14.6443 5.83333 14C5.83333 13.3556 5.311 12.8333 4.66667 12.8333C4.02233 12.8333 3.5 13.3556 3.5 14C3.5 14.6443 4.02233 15.1666 4.66667 15.1666Z" stroke="#6B6D83" stroke-width="3"/>
<path d="M13.9997 15.1666C14.644 15.1666 15.1663 14.6443 15.1663 14C15.1663 13.3556 14.644 12.8333 13.9997 12.8333C13.3553 12.8333 12.833 13.3556 12.833 14C12.833 14.6443 13.3553 15.1666 13.9997 15.1666Z" stroke="#6B6D83" stroke-width="3"/>
<path d="M23.3337 15.1666C23.978 15.1666 24.5003 14.6443 24.5003 14C24.5003 13.3556 23.978 12.8333 23.3337 12.8333C22.6893 12.8333 22.167 13.3556 22.167 14C22.167 14.6443 22.6893 15.1666 23.3337 15.1666Z" stroke="#6B6D83" stroke-width="3"/>
</svg>
