<svg width="19" height="19" viewBox="0 0 19 19" fill="none" xmlns="http://www.w3.org/2000/svg">
<path d="M7.37019 5.31209C7.2968 5.38533 7.23857 5.47233 7.19885 5.5681C7.15912 5.66387 7.13867 5.76653 7.13867 5.87022C7.13867 5.9739 7.15912 6.07656 7.19885 6.17233C7.23857 6.26811 7.2968 6.3551 7.37019 6.42834L10.4419 9.50001L7.37019 12.5717C7.22217 12.7197 7.13901 12.9205 7.13901 13.1298C7.13901 13.3391 7.22217 13.5399 7.37019 13.6879C7.51821 13.8359 7.71898 13.9191 7.92832 13.9191C8.13765 13.9191 8.33842 13.8359 8.48644 13.6879L12.1202 10.0542C12.1936 9.98093 12.2518 9.89394 12.2915 9.79817C12.3313 9.7024 12.3517 9.59973 12.3517 9.49605C12.3517 9.39237 12.3313 9.2897 12.2915 9.19393C12.2518 9.09816 12.1936 9.01116 12.1202 8.93792L8.48644 5.30417C8.18561 5.00334 7.67894 5.00334 7.37019 5.31209Z" fill="#6B6D83"/>
</svg>
