<svg width="183" height="183" viewBox="0 0 183 183" fill="none" xmlns="http://www.w3.org/2000/svg">
<g style="mix-blend-mode:soft-light">
<path d="M163.836 75.6908C153.161 72.8442 138.775 84.8408 131.607 77.2158C122.915 67.9642 143.146 49.105 141.062 31.8725C139.385 17.7408 123.22 11.1325 107.207 11.0308C94.6278 10.8505 82.1401 13.1961 70.4835 17.9286C58.8269 22.6611 48.2383 29.6843 39.3447 38.5825C5.59137 72.0817 -1.6778 119.916 32.3805 152.856C63.948 183.356 116.815 174.358 147.62 145.739C157.144 136.383 164.471 125.028 169.071 112.494C174.561 97.7525 175.07 78.7408 163.836 75.6908V75.6908ZM47.783 53.7308C50.5366 52.6498 53.6036 52.688 56.3294 53.8372C59.0552 54.9864 61.2237 57.1556 62.3722 59.8817C62.8296 62.8034 62.1218 65.7879 60.4011 68.1931C58.6804 70.5983 56.0843 72.2319 53.1714 72.7425C50.419 73.8371 47.3465 73.8056 44.6171 72.6549C41.8877 71.5042 39.7201 69.3264 38.5822 66.5917C38.1383 63.6718 38.8514 60.694 40.5698 58.292C42.2882 55.89 44.8763 54.2535 47.783 53.7308V53.7308ZM25.7722 105.835C25.316 102.906 26.0307 99.9147 27.7618 97.5082C29.493 95.1017 32.1016 93.473 35.0239 92.9742C37.7702 91.8952 40.83 91.9348 43.5475 93.0845C46.265 94.2342 48.4241 96.4026 49.5622 99.125C49.9633 102.021 49.2301 104.96 47.5155 107.328C45.801 109.696 43.2378 111.31 40.3614 111.833C37.6256 112.91 34.5792 112.888 31.8599 111.77C29.1406 110.652 26.9591 108.525 25.7722 105.835V105.835ZM61.3555 148.179C58.6031 149.274 55.5307 149.242 52.8013 148.092C50.0719 146.941 47.9043 144.763 46.7664 142.028C46.3212 139.116 47.0274 136.145 48.7354 133.744C50.4434 131.343 53.0189 129.702 55.9164 129.168C58.6699 128.086 61.7369 128.125 64.4627 129.274C67.1885 130.423 69.3571 132.592 70.5055 135.318C70.729 136.787 70.6602 138.286 70.303 139.728C69.9458 141.171 69.3072 142.528 68.424 143.723C67.5408 144.918 66.4303 145.927 65.1562 146.692C63.8822 147.456 62.4696 147.962 60.9997 148.179H61.3555ZM76.2497 41.9883C75.8058 39.0685 76.5189 36.0907 78.2373 33.6887C79.9557 31.2867 82.5438 29.6502 85.4505 29.1275C88.2051 28.0599 91.2669 28.1046 93.9891 29.2523C96.7113 30.4 98.8809 32.5608 100.04 35.2783C100.496 38.2075 99.7812 41.1986 98.05 43.6051C96.3189 46.0117 93.7103 47.6403 90.788 48.1392C88.0428 49.2318 84.9776 49.1989 82.2564 48.0476C79.5353 46.8964 77.3772 44.7194 76.2497 41.9883V41.9883ZM105.835 154.788C103.082 155.882 100.01 155.851 97.2804 154.7C94.551 153.549 92.3835 151.371 91.2455 148.637C90.8016 145.717 91.5147 142.739 93.2331 140.337C94.9516 137.935 97.5396 136.299 100.446 135.776C103.201 134.708 106.263 134.753 108.985 135.901C111.707 137.048 113.877 139.209 115.036 141.927C115.489 144.878 114.753 147.889 112.991 150.3C111.228 152.711 108.582 154.324 105.631 154.788H105.835ZM131.251 101.616C129.682 105.616 126.593 108.832 122.661 110.563C120.417 111.552 117.995 112.071 115.544 112.088C112.876 112.175 110.238 111.506 107.935 110.156C105.632 108.807 103.758 106.833 102.531 104.463C101.771 102.885 101.348 101.166 101.286 99.4165C101.225 97.6665 101.528 95.9229 102.175 94.2958C103.744 90.296 106.833 87.0798 110.766 85.3492C114.283 83.5251 118.373 83.1418 122.168 84.2804C125.963 85.419 129.166 87.99 131.099 91.4492C131.794 93.0627 132.153 94.8011 132.153 96.5579C132.153 98.3148 131.794 100.053 131.099 101.667L131.251 101.616Z" fill="#979797"/>
</g>
</svg>
